<?xml version="1.0" encoding="UTF-8" standalone="no"?>
<!DOCTYPE svg PUBLIC "-//W3C//DTD SVG 1.1//EN"
 "http://www.w3.org/Graphics/SVG/1.1/DTD/svg11.dtd">
<!-- Generated by graphviz version 15.0.0 (20260523.1842)
 -->
<!-- Title: stock_app Pages: 1 -->
<svg width="1334pt" height="951pt"
 viewBox="0.00 0.00 1334.00 951.00" xmlns="http://www.w3.org/2000/svg" xmlns:xlink="http://www.w3.org/1999/xlink">
<g id="graph0" class="graph" transform="scale(1 1) rotate(0) translate(4 946.75)">
<title>stock_app</title>
<polygon fill="white" stroke="none" points="-4,4 -4,-946.75 1330.12,-946.75 1330.12,4 -4,4"/>
<text xml:space="preserve" text-anchor="middle" x="180.88" y="-927.35" font-family="Helvetica,sans-Serif" font-size="12.00">stock_app — market&#45;intelligence pipeline (learn → reason → act)</text>
<g id="clust1" class="cluster">
<title>cluster_l1</title>
<path fill="#e6f3f7" stroke="#9cc3d5" d="M839,-784C839,-784 1107,-784 1107,-784 1113,-784 1119,-790 1119,-796 1119,-796 1119,-844.75 1119,-844.75 1119,-850.75 1113,-856.75 1107,-856.75 1107,-856.75 839,-856.75 839,-856.75 833,-856.75 827,-850.75 827,-844.75 827,-844.75 827,-796 827,-796 827,-790 833,-784 839,-784"/>
<text xml:space="preserve" text-anchor="middle" x="881.88" y="-841.35" font-family="Helvetica,sans-Serif" font-size="12.00">Layer 1 · INGEST</text>
</g>
<g id="clust2" class="cluster">
<title>cluster_l2</title>
<path fill="#eaf4ea" stroke="#a9cca9" d="M784,-619.25C784,-619.25 1162,-619.25 1162,-619.25 1168,-619.25 1174,-625.25 1174,-631.25 1174,-631.25 1174,-680 1174,-680 1174,-686 1168,-692 1162,-692 1162,-692 784,-692 784,-692 778,-692 772,-686 772,-680 772,-680 772,-631.25 772,-631.25 772,-625.25 778,-619.25 784,-619.25"/>
<text xml:space="preserve" text-anchor="middle" x="973.12" y="-676.6" font-family="Helvetica,sans-Serif" font-size="12.00">Layer 2 · INTELLIGENCE &#160;&#160;(&quot;reasoning&quot; = §17.7 100&#45;pt rubric + bonuses)</text>
</g>
<g id="clust3" class="cluster">
<title>cluster_l3</title>
<path fill="#fdeee8" stroke="#e6b8a2" d="M786,-454.5C786,-454.5 970,-454.5 970,-454.5 976,-454.5 982,-460.5 982,-466.5 982,-466.5 982,-515.25 982,-515.25 982,-521.25 976,-527.25 970,-527.25 970,-527.25 786,-527.25 786,-527.25 780,-527.25 774,-521.25 774,-515.25 774,-515.25 774,-466.5 774,-466.5 774,-460.5 780,-454.5 786,-454.5"/>
<text xml:space="preserve" text-anchor="middle" x="878" y="-511.85" font-family="Helvetica,sans-Serif" font-size="12.00">Layer 3 · TRADE CONSTRUCTION</text>
</g>
<g id="clust4" class="cluster">
<title>cluster_l4</title>
<path fill="#fdeee8" stroke="#e6b8a2" d="M682,-260.75C682,-260.75 936,-260.75 936,-260.75 942,-260.75 948,-266.75 948,-272.75 948,-272.75 948,-321.5 948,-321.5 948,-327.5 942,-333.5 936,-333.5 936,-333.5 682,-333.5 682,-333.5 676,-333.5 670,-327.5 670,-321.5 670,-321.5 670,-272.75 670,-272.75 670,-266.75 676,-260.75 682,-260.75"/>
<text xml:space="preserve" text-anchor="middle" x="741" y="-318.1" font-family="Helvetica,sans-Serif" font-size="12.00">Layer 4 · RISK / SIZING</text>
</g>
<g id="clust5" class="cluster">
<title>cluster_l5</title>
<path fill="#eaf4ea" stroke="#a9cca9" d="M968,-260.5C968,-260.5 1186,-260.5 1186,-260.5 1192,-260.5 1198,-266.5 1198,-272.5 1198,-272.5 1198,-321.75 1198,-321.75 1198,-327.75 1192,-333.75 1186,-333.75 1186,-333.75 968,-333.75 968,-333.75 962,-333.75 956,-327.75 956,-321.75 956,-321.75 956,-272.5 956,-272.5 956,-266.5 962,-260.5 968,-260.5"/>
<text xml:space="preserve" text-anchor="middle" x="1049.12" y="-318.35" font-family="Helvetica,sans-Serif" font-size="12.00">Layer 5 · LEARNING &#160;&#160;(the loop)</text>
</g>
<g id="clust6" class="cluster">
<title>cluster_fv</title>
<path fill="#eef2f7" stroke="#b9c6d8" d="M20,-260.75C20,-260.75 580,-260.75 580,-260.75 586,-260.75 592,-266.75 592,-272.75 592,-272.75 592,-321.5 592,-321.5 592,-327.5 586,-333.5 580,-333.5 580,-333.5 20,-333.5 20,-333.5 14,-333.5 8,-327.5 8,-321.5 8,-321.5 8,-272.75 8,-272.75 8,-266.75 14,-260.75 20,-260.75"/>
<text xml:space="preserve" text-anchor="middle" x="278.12" y="-318.1" font-family="Helvetica,sans-Serif" font-size="12.00">Layer 5.5 · FORWARD&#45;EDGE VALIDATION &#160;&#160;(isolated · read&#45;only · committed JSON, off&#45;Supabase)</text>
</g>
<g id="clust7" class="cluster">
<title>cluster_l6</title>
<path fill="#e6f3f7" stroke="#9cc3d5" d="M710,-87.75C710,-87.75 908,-87.75 908,-87.75 914,-87.75 920,-93.75 920,-99.75 920,-99.75 920,-148.5 920,-148.5 920,-154.5 914,-160.5 908,-160.5 908,-160.5 710,-160.5 710,-160.5 704,-160.5 698,-154.5 698,-148.5 698,-148.5 698,-99.75 698,-99.75 698,-93.75 704,-87.75 710,-87.75"/>
<text xml:space="preserve" text-anchor="middle" x="776.5" y="-145.1" font-family="Helvetica,sans-Serif" font-size="12.00">Layer 6 · PRESENTATION</text>
</g>
<!-- ext -->
<g id="node1" class="node">
<title>ext</title>
<polygon fill="#ededed" stroke="#444444" points="1118.25,-919.75 821.75,-919.75 821.75,-883.75 1124.25,-883.75 1124.25,-913.75 1118.25,-919.75"/>
<polyline fill="none" stroke="#444444" points="1118.25,-919.75 1118.25,-913.75"/>
<polyline fill="none" stroke="#444444" points="1124.25,-913.75 1118.25,-913.75"/>
<text xml:space="preserve" text-anchor="middle" x="973" y="-903.3" font-family="Helvetica,sans-Serif" font-size="11.00">External sources</text>
<text xml:space="preserve" text-anchor="middle" x="973" y="-891.3" font-family="Helvetica,sans-Serif" font-size="11.00">EDGAR · RSS · Truth Social · 13F · yfinance · FRED / FDA</text>
</g>
<!-- l1 -->
<g id="node2" class="node">
<title>l1</title>
<path fill="#cfe8f0" stroke="#444444" d="M1098.75,-828C1098.75,-828 847.25,-828 847.25,-828 841.25,-828 835.25,-822 835.25,-816 835.25,-816 835.25,-804 835.25,-804 835.25,-798 841.25,-792 847.25,-792 847.25,-792 1098.75,-792 1098.75,-792 1104.75,-792 1110.75,-798 1110.75,-804 1110.75,-804 1110.75,-816 1110.75,-816 1110.75,-822 1104.75,-828 1098.75,-828"/>
<text xml:space="preserve" text-anchor="middle" x="973" y="-811.55" font-family="Helvetica,sans-Serif" font-size="11.00">filing · news · truth_social · earnings</text>
<text xml:space="preserve" text-anchor="middle" x="973" y="-799.55" font-family="Helvetica,sans-Serif" font-size="11.00">crypto_macro · flows · intraday_alert · market_scanner</text>
</g>
<!-- ext&#45;&gt;l1 -->
<g id="edge1" class="edge">
<title>ext&#45;&gt;l1</title>
<path fill="none" stroke="#555555" d="M973,-883.45C973,-871.03 973,-854.02 973,-839.6"/>
<polygon fill="#555555" stroke="#555555" points="976.5,-839.77 973,-829.77 969.5,-839.77 976.5,-839.77"/>
</g>
<!-- ev -->
<g id="node3" class="node">
<title>ev</title>
<path fill="#fdf0d5" stroke="#444444" d="M1041.38,-751.73C1041.38,-753.53 1010.73,-755 973,-755 935.27,-755 904.62,-753.53 904.62,-751.73 904.62,-751.73 904.62,-722.27 904.62,-722.27 904.62,-720.47 935.27,-719 973,-719 1010.73,-719 1041.38,-720.47 1041.38,-722.27 1041.38,-722.27 1041.38,-751.73 1041.38,-751.73"/>
<path fill="none" stroke="#444444" d="M1041.38,-751.73C1041.38,-749.92 1010.73,-748.45 973,-748.45 935.27,-748.45 904.62,-749.92 904.62,-751.73"/>
<text xml:space="preserve" text-anchor="middle" x="973" y="-732.55" font-family="Helvetica,sans-Serif" font-size="11.00">stock_normalized_events</text>
</g>
<!-- l1&#45;&gt;ev -->
<g id="edge2" class="edge">
<title>l1&#45;&gt;ev</title>
<path fill="none" stroke="#555555" d="M973,-791.81C973,-784.23 973,-775.1 973,-766.54"/>
<polygon fill="#555555" stroke="#555555" points="976.5,-766.54 973,-756.54 969.5,-766.54 976.5,-766.54"/>
</g>
<!-- l2 -->
<g id="node4" class="node">
<title>l2</title>
<path fill="#d6ead6" stroke="#444444" d="M1059.38,-663.25C1059.38,-663.25 886.62,-663.25 886.62,-663.25 880.62,-663.25 874.62,-657.25 874.62,-651.25 874.62,-651.25 874.62,-639.25 874.62,-639.25 874.62,-633.25 880.62,-627.25 886.62,-627.25 886.62,-627.25 1059.38,-627.25 1059.38,-627.25 1065.38,-627.25 1071.38,-633.25 1071.38,-639.25 1071.38,-639.25 1071.38,-651.25 1071.38,-651.25 1071.38,-657.25 1065.38,-663.25 1059.38,-663.25"/>
<text xml:space="preserve" text-anchor="middle" x="973" y="-646.8" font-family="Helvetica,sans-Serif" font-size="11.00">thesis_agent</text>
<text xml:space="preserve" text-anchor="middle" x="973" y="-634.8" font-family="Helvetica,sans-Serif" font-size="11.00">cluster + rubric + intelligence bonuses</text>
</g>
<!-- ev&#45;&gt;l2 -->
<g id="edge3" class="edge">
<title>ev&#45;&gt;l2</title>
<path fill="none" stroke="#555555" d="M973,-718.7C973,-706.28 973,-689.27 973,-674.85"/>
<polygon fill="#555555" stroke="#555555" points="976.5,-675.02 973,-665.02 969.5,-675.02 976.5,-675.02"/>
</g>
<!-- sig -->
<g id="node5" class="node">
<title>sig</title>
<path fill="#fdf0d5" stroke="#444444" d="M1012.88,-586.98C1012.88,-588.78 995,-590.25 973,-590.25 951,-590.25 933.12,-588.78 933.12,-586.98 933.12,-586.98 933.12,-557.52 933.12,-557.52 933.12,-555.72 951,-554.25 973,-554.25 995,-554.25 1012.88,-555.72 1012.88,-557.52 1012.88,-557.52 1012.88,-586.98 1012.88,-586.98"/>
<path fill="none" stroke="#444444" d="M1012.88,-586.98C1012.88,-585.17 995,-583.7 973,-583.7 951,-583.7 933.12,-585.17 933.12,-586.98"/>
<text xml:space="preserve" text-anchor="middle" x="973" y="-567.8" font-family="Helvetica,sans-Serif" font-size="11.00">stock_signals</text>
</g>
<!-- l2&#45;&gt;sig -->
<g id="edge4" class="edge">
<title>l2&#45;&gt;sig</title>
<path fill="none" stroke="#555555" d="M973,-627.06C973,-619.48 973,-610.35 973,-601.79"/>
<polygon fill="#555555" stroke="#555555" points="976.5,-601.79 973,-591.79 969.5,-601.79 976.5,-601.79"/>
</g>
<!-- l3 -->
<g id="node6" class="node">
<title>l3</title>
<path fill="#f7d9cb" stroke="#444444" d="M940.75,-498.5C940.75,-498.5 815.25,-498.5 815.25,-498.5 809.25,-498.5 803.25,-492.5 803.25,-486.5 803.25,-486.5 803.25,-474.5 803.25,-474.5 803.25,-468.5 809.25,-462.5 815.25,-462.5 815.25,-462.5 940.75,-462.5 940.75,-462.5 946.75,-462.5 952.75,-468.5 952.75,-474.5 952.75,-474.5 952.75,-486.5 952.75,-486.5 952.75,-492.5 946.75,-498.5 940.75,-498.5"/>
<text xml:space="preserve" text-anchor="middle" x="878" y="-482.05" font-family="Helvetica,sans-Serif" font-size="11.00">trade_setup_agent</text>
<text xml:space="preserve" text-anchor="middle" x="878" y="-470.05" font-family="Helvetica,sans-Serif" font-size="11.00">setup &#160;&#160;OR &#160;&#160;reason_to_skip</text>
</g>
<!-- sig&#45;&gt;l3 -->
<g id="edge5" class="edge">
<title>sig&#45;&gt;l3</title>
<path fill="none" stroke="#555555" d="M954.68,-553.95C940.36,-540.41 920.25,-521.42 904.22,-506.27"/>
<polygon fill="#555555" stroke="#555555" points="907.03,-504.11 897.36,-499.79 902.23,-509.2 907.03,-504.11"/>
</g>
<!-- l5 -->
<g id="node9" class="node">
<title>l5</title>
<path fill="#d6ead6" stroke="#444444" d="M1178.38,-305C1178.38,-305 975.62,-305 975.62,-305 969.62,-305 963.62,-299 963.62,-293 963.62,-293 963.62,-280.5 963.62,-280.5 963.62,-274.5 969.62,-268.5 975.62,-268.5 975.62,-268.5 1178.38,-268.5 1178.38,-268.5 1184.38,-268.5 1190.38,-274.5 1190.38,-280.5 1190.38,-280.5 1190.38,-293 1190.38,-293 1190.38,-299 1184.38,-305 1178.38,-305"/>
<text xml:space="preserve" text-anchor="middle" x="1077" y="-290.55" font-family="Helvetica,sans-Serif" font-size="11.00">event_paper_agent (hourly) → paper trades</text>
<text xml:space="preserve" text-anchor="middle" x="1077" y="-276.3" font-family="Helvetica,sans-Serif" font-size="11.00">price_agent (2h) → grade outcomes</text>
</g>
<!-- sig&#45;&gt;l5 -->
<g id="edge8" class="edge">
<title>sig&#45;&gt;l5</title>
<path fill="none" stroke="#555555" d="M978.12,-554.13C980.54,-546 983.45,-536.13 986,-527.25 999.23,-481.23 998.56,-468.47 1015,-423.5 1029,-385.22 1049.21,-342.72 1062.7,-315.64"/>
<polygon fill="#555555" stroke="#555555" points="1065.82,-317.24 1067.19,-306.74 1059.57,-314.09 1065.82,-317.24"/>
</g>
<!-- setups -->
<g id="node7" class="node">
<title>setups</title>
<path fill="#fdf0d5" stroke="#444444" d="M863.5,-402.23C863.5,-404.03 839.07,-405.5 809,-405.5 778.93,-405.5 754.5,-404.03 754.5,-402.23 754.5,-402.23 754.5,-372.77 754.5,-372.77 754.5,-370.97 778.93,-369.5 809,-369.5 839.07,-369.5 863.5,-370.97 863.5,-372.77 863.5,-372.77 863.5,-402.23 863.5,-402.23"/>
<path fill="none" stroke="#444444" d="M863.5,-402.23C863.5,-400.42 839.07,-398.95 809,-398.95 778.93,-398.95 754.5,-400.42 754.5,-402.23"/>
<text xml:space="preserve" text-anchor="middle" x="809" y="-383.05" font-family="Helvetica,sans-Serif" font-size="11.00">stock_trade_setups</text>
</g>
<!-- l3&#45;&gt;setups -->
<g id="edge6" class="edge">
<title>l3&#45;&gt;setups</title>
<path fill="none" stroke="#555555" d="M865.02,-462.38C854.87,-449 840.58,-430.15 828.97,-414.84"/>
<polygon fill="#555555" stroke="#555555" points="831.9,-412.91 823.07,-407.06 826.32,-417.14 831.9,-412.91"/>
</g>
<!-- l4 -->
<g id="node8" class="node">
<title>l4</title>
<path fill="#f7d9cb" stroke="#444444" d="M928,-304.75C928,-304.75 690,-304.75 690,-304.75 684,-304.75 678,-298.75 678,-292.75 678,-292.75 678,-280.75 678,-280.75 678,-274.75 684,-268.75 690,-268.75 690,-268.75 928,-268.75 928,-268.75 934,-268.75 940,-274.75 940,-280.75 940,-280.75 940,-292.75 940,-292.75 940,-298.75 934,-304.75 928,-304.75"/>
<text xml:space="preserve" text-anchor="middle" x="809" y="-288.3" font-family="Helvetica,sans-Serif" font-size="11.00">risk_agent</text>
<text xml:space="preserve" text-anchor="middle" x="809" y="-276.3" font-family="Helvetica,sans-Serif" font-size="11.00">Van Tharp sizing · drawdown breaker · daily budget</text>
</g>
<!-- setups&#45;&gt;l4 -->
<g id="edge7" class="edge">
<title>setups&#45;&gt;l4</title>
<path fill="none" stroke="#555555" d="M809,-369.3C809,-354.66 809,-333.34 809,-316.18"/>
<polygon fill="#555555" stroke="#555555" points="812.5,-316.6 809,-306.6 805.5,-316.6 812.5,-316.6"/>
</g>
<!-- setups&#45;&gt;l5 -->
<g id="edge9" class="edge">
<title>setups&#45;&gt;l5</title>
<path fill="none" stroke="#555555" d="M853.86,-369.97C899.11,-353.3 969.2,-327.47 1018.73,-309.22"/>
<polygon fill="#555555" stroke="#555555" points="1019.69,-312.6 1027.86,-305.86 1017.27,-306.03 1019.69,-312.6"/>
</g>
<!-- pb -->
<g id="node12" class="node">
<title>pb</title>
<path fill="#dde7f0" stroke="#444444" d="M245.88,-304.75C245.88,-304.75 28.12,-304.75 28.12,-304.75 22.12,-304.75 16.12,-298.75 16.12,-292.75 16.12,-292.75 16.12,-280.75 16.12,-280.75 16.12,-274.75 22.12,-268.75 28.12,-268.75 28.12,-268.75 245.88,-268.75 245.88,-268.75 251.88,-268.75 257.88,-274.75 257.88,-280.75 257.88,-280.75 257.88,-292.75 257.88,-292.75 257.88,-298.75 251.88,-304.75 245.88,-304.75"/>
<text xml:space="preserve" text-anchor="middle" x="137" y="-289.43" font-family="Helvetica,sans-Serif" font-size="11.00">paper_book</text>
<text xml:space="preserve" text-anchor="middle" x="137" y="-277.43" font-family="Helvetica,sans-Serif" font-size="11.00">grade TRADEABLE setups vs $5k QQQ → tier</text>
</g>
<!-- setups&#45;&gt;pb -->
<g id="edge14" class="edge">
<title>setups&#45;&gt;pb</title>
<path fill="none" stroke="#555555" d="M754.08,-385.55C655.41,-382.86 442.13,-372.65 267,-333.75 240.55,-327.88 212.08,-318.21 188.55,-309.24"/>
<polygon fill="#555555" stroke="#555555" points="190.11,-306.09 179.52,-305.74 187.57,-312.62 190.11,-306.09"/>
</g>
<!-- sh -->
<g id="node13" class="node">
<title>sh</title>
<path fill="#dde7f0" stroke="#444444" d="M572.25,-304.75C572.25,-304.75 287.75,-304.75 287.75,-304.75 281.75,-304.75 275.75,-298.75 275.75,-292.75 275.75,-292.75 275.75,-280.75 275.75,-280.75 275.75,-274.75 281.75,-268.75 287.75,-268.75 287.75,-268.75 572.25,-268.75 572.25,-268.75 578.25,-268.75 584.25,-274.75 584.25,-280.75 584.25,-280.75 584.25,-292.75 584.25,-292.75 584.25,-298.75 578.25,-304.75 572.25,-304.75"/>
<text xml:space="preserve" text-anchor="middle" x="430" y="-289.43" font-family="Helvetica,sans-Serif" font-size="11.00">paper_book_shadow</text>
<text xml:space="preserve" text-anchor="middle" x="430" y="-277.43" font-family="Helvetica,sans-Serif" font-size="11.00">grade SKIPPED setups by reason → which gate over&#45;filters?</text>
</g>
<!-- setups&#45;&gt;sh -->
<g id="edge15" class="edge">
<title>setups&#45;&gt;sh</title>
<path fill="none" stroke="#555555" d="M754.21,-385.56C699.04,-383.18 612.13,-375.51 541,-351.5 513.19,-342.11 484.53,-325.44 463.3,-311.5"/>
<polygon fill="#555555" stroke="#555555" points="465.31,-308.64 455.06,-305.97 461.41,-314.45 465.31,-308.64"/>
</g>
<!-- riskd -->
<g id="node11" class="node">
<title>riskd</title>
<path fill="#fdf0d5" stroke="#444444" d="M865.75,-224.23C865.75,-226.03 840.31,-227.5 809,-227.5 777.69,-227.5 752.25,-226.03 752.25,-224.23 752.25,-224.23 752.25,-194.77 752.25,-194.77 752.25,-192.97 777.69,-191.5 809,-191.5 840.31,-191.5 865.75,-192.97 865.75,-194.77 865.75,-194.77 865.75,-224.23 865.75,-224.23"/>
<path fill="none" stroke="#444444" d="M865.75,-224.23C865.75,-222.42 840.31,-220.95 809,-220.95 777.69,-220.95 752.25,-222.42 752.25,-224.23"/>
<text xml:space="preserve" text-anchor="middle" x="809" y="-205.05" font-family="Helvetica,sans-Serif" font-size="11.00">stock_risk_decisions</text>
</g>
<!-- l4&#45;&gt;riskd -->
<g id="edge11" class="edge">
<title>l4&#45;&gt;riskd</title>
<path fill="none" stroke="#555555" d="M809,-268.3C809,-259.65 809,-249 809,-239.19"/>
<polygon fill="#555555" stroke="#555555" points="812.5,-239.37 809,-229.37 805.5,-239.37 812.5,-239.37"/>
</g>
<!-- cal -->
<g id="node10" class="node">
<title>cal</title>
<path fill="#ffe1a8" stroke="#444444" d="M1148.75,-227.5C1148.75,-229.71 1116.59,-231.5 1077,-231.5 1037.41,-231.5 1005.25,-229.71 1005.25,-227.5 1005.25,-227.5 1005.25,-191.5 1005.25,-191.5 1005.25,-189.29 1037.41,-187.5 1077,-187.5 1116.59,-187.5 1148.75,-189.29 1148.75,-191.5 1148.75,-191.5 1148.75,-227.5 1148.75,-227.5"/>
<path fill="none" stroke="#444444" d="M1148.75,-227.5C1148.75,-225.29 1116.59,-223.5 1077,-223.5 1037.41,-223.5 1005.25,-225.29 1005.25,-227.5"/>
<text xml:space="preserve" text-anchor="middle" x="1077" y="-211.05" font-family="Helvetica,sans-Serif" font-size="11.00">stock_rule_calibration</text>
<text xml:space="preserve" text-anchor="middle" x="1077" y="-199.05" font-family="Helvetica,sans-Serif" font-size="11.00">per&#45;rule &#160;&#160;PF · accuracy · n</text>
</g>
<!-- l5&#45;&gt;cal -->
<g id="edge10" class="edge">
<title>l5&#45;&gt;cal</title>
<path fill="none" stroke="#555555" d="M1077,-268.3C1077,-260.83 1077,-251.87 1077,-243.25"/>
<polygon fill="#555555" stroke="#555555" points="1080.5,-243.4 1077,-233.4 1073.5,-243.4 1080.5,-243.4"/>
</g>
<!-- cal&#45;&gt;l2 -->
<g id="edge16" class="edge">
<title>cal&#45;&gt;l2</title>
<path fill="none" stroke="#2a9d8f" stroke-width="1.6" stroke-dasharray="5,2" d="M1004.98,-218.25C883.09,-231.44 648.96,-257.17 646,-260.5 618.02,-291.91 632.4,-337.31 672,-351.5 756.43,-381.76 787.97,-340.95 873,-369.5 940.57,-392.19 970.48,-394.52 1009,-454.5 1023.45,-477 1034.12,-558.87 1022,-590.25 1017.99,-600.63 1010.96,-610.25 1003.45,-618.41"/>
<polygon fill="#2a9d8f" stroke="#2a9d8f" stroke-width="1.6" points="1001.21,-615.7 996.62,-625.25 1006.16,-620.65 1001.21,-615.7"/>
<text xml:space="preserve" text-anchor="middle" x="1027.06" y="-435.95" font-family="Helvetica,sans-Serif" font-size="9.00" fill="#1f7a6e">learn → act:</text>
<text xml:space="preserve" text-anchor="middle" x="1027.06" y="-424.7" font-family="Helvetica,sans-Serif" font-size="9.00" fill="#1f7a6e">gate scoring</text>
</g>
<!-- cal&#45;&gt;l3 -->
<g id="edge17" class="edge">
<title>cal&#45;&gt;l3</title>
<path fill="none" stroke="#2a9d8f" stroke-width="1.6" stroke-dasharray="5,2" d="M1020.48,-230.99C997.12,-238.54 969.57,-246.27 944,-250.5 928.75,-253.02 676.73,-249.38 666,-260.5 643.4,-283.93 645.03,-308.85 666,-333.75 696.07,-369.46 827.34,-359.81 873,-369.5 968.96,-389.86 1026.72,-346.12 1087,-423.5 1092.74,-430.86 1093.03,-437.38 1087,-444.5 1071.19,-463.18 1015.37,-471.9 965.4,-475.96"/>
<polygon fill="#2a9d8f" stroke="#2a9d8f" stroke-width="1.6" points="965.31,-472.46 955.6,-476.69 965.83,-479.44 965.31,-472.46"/>
<text xml:space="preserve" text-anchor="middle" x="727.27" y="-342.95" font-family="Helvetica,sans-Serif" font-size="9.00" fill="#1f7a6e">skip if PF &lt; 1.0</text>
</g>
<!-- l6 -->
<g id="node14" class="node">
<title>l6</title>
<path fill="#cfe8f0" stroke="#444444" d="M900.25,-131.75C900.25,-131.75 717.75,-131.75 717.75,-131.75 711.75,-131.75 705.75,-125.75 705.75,-119.75 705.75,-119.75 705.75,-107.75 705.75,-107.75 705.75,-101.75 711.75,-95.75 717.75,-95.75 717.75,-95.75 900.25,-95.75 900.25,-95.75 906.25,-95.75 912.25,-101.75 912.25,-107.75 912.25,-107.75 912.25,-119.75 912.25,-119.75 912.25,-125.75 906.25,-131.75 900.25,-131.75"/>
<text xml:space="preserve" text-anchor="middle" x="809" y="-110.42" font-family="Helvetica,sans-Serif" font-size="11.00">site_generator → dashboard · Telegram</text>
</g>
<!-- cal&#45;&gt;l6 -->
<g id="edge13" class="edge">
<title>cal&#45;&gt;l6</title>
<path fill="none" stroke="#555555" d="M1007.83,-188.67C980.59,-180.48 949.15,-170.56 921,-160.5 900.73,-153.26 878.75,-144.49 859.67,-136.57"/>
<polygon fill="#555555" stroke="#555555" points="861.07,-133.36 850.5,-132.73 858.37,-139.82 861.07,-133.36"/>
</g>
<!-- gate -->
<g id="node15" class="node">
<title>gate</title>
<path fill="#ffe1a8" stroke="#444444" d="M1085.22,-143.49C1085.22,-143.49 942.03,-116.01 942.03,-116.01 936.14,-114.88 936.14,-112.62 942.03,-111.49 942.03,-111.49 1085.22,-84.01 1085.22,-84.01 1091.11,-82.88 1102.89,-82.88 1108.78,-84.01 1108.78,-84.01 1251.97,-111.49 1251.97,-111.49 1257.86,-112.62 1257.86,-114.88 1251.97,-116.01 1251.97,-116.01 1108.78,-143.49 1108.78,-143.49 1102.89,-144.62 1091.11,-144.62 1085.22,-143.49"/>
<text xml:space="preserve" text-anchor="middle" x="1097" y="-115.3" font-family="Helvetica,sans-Serif" font-size="11.00">rule matured?</text>
<text xml:space="preserve" text-anchor="middle" x="1097" y="-103.3" font-family="Helvetica,sans-Serif" font-size="11.00">n ≥ 30 · PF ≥ bar · forward&#45;held</text>
</g>
<!-- cal&#45;&gt;gate -->
<g id="edge18" class="edge">
<title>cal&#45;&gt;gate</title>
<path fill="none" stroke="#555555" d="M1081.54,-187.23C1083.52,-177.92 1085.92,-166.68 1088.23,-155.86"/>
<polygon fill="#555555" stroke="#555555" points="1091.6,-156.81 1090.27,-146.3 1084.76,-155.35 1091.6,-156.81"/>
</g>
<!-- riskd&#45;&gt;l6 -->
<g id="edge12" class="edge">
<title>riskd&#45;&gt;l6</title>
<path fill="none" stroke="#555555" d="M809,-191.3C809,-177.91 809,-159.02 809,-143.36"/>
<polygon fill="#555555" stroke="#555555" points="812.5,-143.67 809,-133.67 805.5,-143.67 812.5,-143.67"/>
</g>
<!-- watch -->
<g id="node16" class="node">
<title>watch</title>
<path fill="#f7d9cb" stroke="#444444" d="M1073.38,-36C1073.38,-36 882.62,-36 882.62,-36 876.62,-36 870.62,-30 870.62,-24 870.62,-24 870.62,-12 870.62,-12 870.62,-6 876.62,0 882.62,0 882.62,0 1073.38,0 1073.38,0 1079.38,0 1085.38,-6 1085.38,-12 1085.38,-12 1085.38,-24 1085.38,-24 1085.38,-30 1079.38,-36 1073.38,-36"/>
<text xml:space="preserve" text-anchor="middle" x="978" y="-19.55" font-family="Helvetica,sans-Serif" font-size="11.00">WATCH / RESEARCH / AVOID_CHASE</text>
<text xml:space="preserve" text-anchor="middle" x="978" y="-7.55" font-family="Helvetica,sans-Serif" font-size="11.00">(paper only — today: ALL signals)</text>
</g>
<!-- gate&#45;&gt;watch -->
<g id="edge19" class="edge">
<title>gate&#45;&gt;watch</title>
<path fill="none" stroke="#555555" d="M1065.11,-87.63C1047.64,-73.86 1026.09,-56.88 1008.79,-43.26"/>
<polygon fill="#555555" stroke="#555555" points="1011.39,-40.85 1001.37,-37.41 1007.06,-46.35 1011.39,-40.85"/>
<text xml:space="preserve" text-anchor="middle" x="1039.18" y="-55.2" font-family="Helvetica,sans-Serif" font-size="9.00">no</text>
</g>
<!-- buy -->
<g id="node17" class="node">
<title>buy</title>
<path fill="#d6ead6" stroke="#444444" d="M1314.12,-36C1314.12,-36 1115.88,-36 1115.88,-36 1109.88,-36 1103.88,-30 1103.88,-24 1103.88,-24 1103.88,-12 1103.88,-12 1103.88,-6 1109.88,0 1115.88,0 1115.88,0 1314.12,0 1314.12,0 1320.12,0 1326.12,-6 1326.12,-12 1326.12,-12 1326.12,-24 1326.12,-24 1326.12,-30 1320.12,-36 1314.12,-36"/>
<text xml:space="preserve" text-anchor="middle" x="1215" y="-19.55" font-family="Helvetica,sans-Serif" font-size="11.00">BUY / SELL</text>
<text xml:space="preserve" text-anchor="middle" x="1215" y="-7.55" font-family="Helvetica,sans-Serif" font-size="11.00">(real conviction — today: NONE; 0 mature)</text>
</g>
<!-- gate&#45;&gt;buy -->
<g id="edge20" class="edge">
<title>gate&#45;&gt;buy</title>
<path fill="none" stroke="#555555" d="M1128.93,-87.38C1146.09,-73.75 1167.16,-57.01 1184.15,-43.51"/>
<polygon fill="#555555" stroke="#555555" points="1186.28,-46.28 1191.94,-37.32 1181.93,-40.8 1186.28,-46.28"/>
<text xml:space="preserve" text-anchor="middle" x="1177.16" y="-55.2" font-family="Helvetica,sans-Serif" font-size="9.00">yes</text>
</g>
</g>
</svg>
