<?xml version="1.0" encoding="UTF-8" standalone="no"?>
<!DOCTYPE svg PUBLIC "-//W3C//DTD SVG 1.1//EN"
 "http://www.w3.org/Graphics/SVG/1.1/DTD/svg11.dtd">
<!-- Generated by graphviz version 15.0.0 (20260523.1842)
 -->
<!-- Title: stock_app Pages: 1 -->
<svg width="1136pt" height="966pt"
 viewBox="0.00 0.00 1136.00 966.00" xmlns="http://www.w3.org/2000/svg" xmlns:xlink="http://www.w3.org/1999/xlink">
<g id="graph0" class="graph" transform="scale(1 1) rotate(0) translate(4 961.5)">
<title>stock_app</title>
<polygon fill="white" stroke="none" points="-4,4 -4,-961.5 1132.12,-961.5 1132.12,4 -4,4"/>
<text xml:space="preserve" text-anchor="middle" x="180.88" y="-942.1" font-family="Helvetica,sans-Serif" font-size="12.00">stock_app — market&#45;intelligence pipeline (learn → reason → act)</text>
<g id="clust1" class="cluster">
<title>cluster_l1</title>
<path fill="#e6f3f7" stroke="#9cc3d5" d="M655,-798.75C655,-798.75 923,-798.75 923,-798.75 929,-798.75 935,-804.75 935,-810.75 935,-810.75 935,-859.5 935,-859.5 935,-865.5 929,-871.5 923,-871.5 923,-871.5 655,-871.5 655,-871.5 649,-871.5 643,-865.5 643,-859.5 643,-859.5 643,-810.75 643,-810.75 643,-804.75 649,-798.75 655,-798.75"/>
<text xml:space="preserve" text-anchor="middle" x="697.88" y="-856.1" font-family="Helvetica,sans-Serif" font-size="12.00">Layer 1 · INGEST</text>
</g>
<g id="clust2" class="cluster">
<title>cluster_l2</title>
<path fill="#eaf4ea" stroke="#a9cca9" d="M650,-634C650,-634 1028,-634 1028,-634 1034,-634 1040,-640 1040,-646 1040,-646 1040,-694.75 1040,-694.75 1040,-700.75 1034,-706.75 1028,-706.75 1028,-706.75 650,-706.75 650,-706.75 644,-706.75 638,-700.75 638,-694.75 638,-694.75 638,-646 638,-646 638,-640 644,-634 650,-634"/>
<text xml:space="preserve" text-anchor="middle" x="839.12" y="-691.35" font-family="Helvetica,sans-Serif" font-size="12.00">Layer 2 · INTELLIGENCE &#160;&#160;(&quot;reasoning&quot; = §17.7 100&#45;pt rubric + bonuses)</text>
</g>
<g id="clust3" class="cluster">
<title>cluster_l3</title>
<path fill="#fdeee8" stroke="#e6b8a2" d="M602,-469.25C602,-469.25 786,-469.25 786,-469.25 792,-469.25 798,-475.25 798,-481.25 798,-481.25 798,-530 798,-530 798,-536 792,-542 786,-542 786,-542 602,-542 602,-542 596,-542 590,-536 590,-530 590,-530 590,-481.25 590,-481.25 590,-475.25 596,-469.25 602,-469.25"/>
<text xml:space="preserve" text-anchor="middle" x="694" y="-526.6" font-family="Helvetica,sans-Serif" font-size="12.00">Layer 3 · TRADE CONSTRUCTION</text>
</g>
<g id="clust4" class="cluster">
<title>cluster_l4</title>
<path fill="#fdeee8" stroke="#e6b8a2" d="M484,-183.5C484,-183.5 738,-183.5 738,-183.5 744,-183.5 750,-189.5 750,-195.5 750,-195.5 750,-244.25 750,-244.25 750,-250.25 744,-256.25 738,-256.25 738,-256.25 484,-256.25 484,-256.25 478,-256.25 472,-250.25 472,-244.25 472,-244.25 472,-195.5 472,-195.5 472,-189.5 478,-183.5 484,-183.5"/>
<text xml:space="preserve" text-anchor="middle" x="543" y="-240.85" font-family="Helvetica,sans-Serif" font-size="12.00">Layer 4 · RISK / SIZING</text>
</g>
<g id="clust5" class="cluster">
<title>cluster_l5</title>
<path fill="#eaf4ea" stroke="#a9cca9" d="M720,-275.25C720,-275.25 938,-275.25 938,-275.25 944,-275.25 950,-281.25 950,-287.25 950,-287.25 950,-336.5 950,-336.5 950,-342.5 944,-348.5 938,-348.5 938,-348.5 720,-348.5 720,-348.5 714,-348.5 708,-342.5 708,-336.5 708,-336.5 708,-287.25 708,-287.25 708,-281.25 714,-275.25 720,-275.25"/>
<text xml:space="preserve" text-anchor="middle" x="801.12" y="-333.1" font-family="Helvetica,sans-Serif" font-size="12.00">Layer 5 · LEARNING &#160;&#160;(the loop)</text>
</g>
<g id="clust6" class="cluster">
<title>cluster_fv</title>
<path fill="#eef2f7" stroke="#b9c6d8" d="M20,-275.5C20,-275.5 580,-275.5 580,-275.5 586,-275.5 592,-281.5 592,-287.5 592,-287.5 592,-336.25 592,-336.25 592,-342.25 586,-348.25 580,-348.25 580,-348.25 20,-348.25 20,-348.25 14,-348.25 8,-342.25 8,-336.25 8,-336.25 8,-287.5 8,-287.5 8,-281.5 14,-275.5 20,-275.5"/>
<text xml:space="preserve" text-anchor="middle" x="278.12" y="-332.85" font-family="Helvetica,sans-Serif" font-size="12.00">Layer 5.5 · FORWARD&#45;EDGE VALIDATION &#160;&#160;(isolated · read&#45;only · committed JSON, off&#45;Supabase)</text>
</g>
<g id="clust7" class="cluster">
<title>cluster_l6</title>
<path fill="#e6f3f7" stroke="#9cc3d5" d="M512,-87.75C512,-87.75 710,-87.75 710,-87.75 716,-87.75 722,-93.75 722,-99.75 722,-99.75 722,-148.5 722,-148.5 722,-154.5 716,-160.5 710,-160.5 710,-160.5 512,-160.5 512,-160.5 506,-160.5 500,-154.5 500,-148.5 500,-148.5 500,-99.75 500,-99.75 500,-93.75 506,-87.75 512,-87.75"/>
<text xml:space="preserve" text-anchor="middle" x="578.5" y="-145.1" font-family="Helvetica,sans-Serif" font-size="12.00">Layer 6 · PRESENTATION</text>
</g>
<!-- ext -->
<g id="node1" class="node">
<title>ext</title>
<polygon fill="#ededed" stroke="#444444" points="934.25,-934.5 637.75,-934.5 637.75,-898.5 940.25,-898.5 940.25,-928.5 934.25,-934.5"/>
<polyline fill="none" stroke="#444444" points="934.25,-934.5 934.25,-928.5"/>
<polyline fill="none" stroke="#444444" points="940.25,-928.5 934.25,-928.5"/>
<text xml:space="preserve" text-anchor="middle" x="789" y="-918.05" font-family="Helvetica,sans-Serif" font-size="11.00">External sources</text>
<text xml:space="preserve" text-anchor="middle" x="789" y="-906.05" font-family="Helvetica,sans-Serif" font-size="11.00">EDGAR · RSS · Truth Social · 13F · yfinance · FRED / FDA</text>
</g>
<!-- l1 -->
<g id="node2" class="node">
<title>l1</title>
<path fill="#cfe8f0" stroke="#444444" d="M914.75,-842.75C914.75,-842.75 663.25,-842.75 663.25,-842.75 657.25,-842.75 651.25,-836.75 651.25,-830.75 651.25,-830.75 651.25,-818.75 651.25,-818.75 651.25,-812.75 657.25,-806.75 663.25,-806.75 663.25,-806.75 914.75,-806.75 914.75,-806.75 920.75,-806.75 926.75,-812.75 926.75,-818.75 926.75,-818.75 926.75,-830.75 926.75,-830.75 926.75,-836.75 920.75,-842.75 914.75,-842.75"/>
<text xml:space="preserve" text-anchor="middle" x="789" y="-826.3" font-family="Helvetica,sans-Serif" font-size="11.00">filing · news · truth_social · earnings</text>
<text xml:space="preserve" text-anchor="middle" x="789" y="-814.3" font-family="Helvetica,sans-Serif" font-size="11.00">crypto_macro · flows · intraday_alert · market_scanner</text>
</g>
<!-- ext&#45;&gt;l1 -->
<g id="edge1" class="edge">
<title>ext&#45;&gt;l1</title>
<path fill="none" stroke="#555555" d="M789,-898.2C789,-885.78 789,-868.77 789,-854.35"/>
<polygon fill="#555555" stroke="#555555" points="792.5,-854.52 789,-844.52 785.5,-854.52 792.5,-854.52"/>
</g>
<!-- ev -->
<g id="node3" class="node">
<title>ev</title>
<path fill="#fdf0d5" stroke="#444444" d="M857.38,-766.48C857.38,-768.28 826.73,-769.75 789,-769.75 751.27,-769.75 720.62,-768.28 720.62,-766.48 720.62,-766.48 720.62,-737.02 720.62,-737.02 720.62,-735.22 751.27,-733.75 789,-733.75 826.73,-733.75 857.38,-735.22 857.38,-737.02 857.38,-737.02 857.38,-766.48 857.38,-766.48"/>
<path fill="none" stroke="#444444" d="M857.38,-766.48C857.38,-764.67 826.73,-763.2 789,-763.2 751.27,-763.2 720.62,-764.67 720.62,-766.48"/>
<text xml:space="preserve" text-anchor="middle" x="789" y="-747.3" font-family="Helvetica,sans-Serif" font-size="11.00">stock_normalized_events</text>
</g>
<!-- l1&#45;&gt;ev -->
<g id="edge2" class="edge">
<title>l1&#45;&gt;ev</title>
<path fill="none" stroke="#555555" d="M789,-806.56C789,-798.98 789,-789.85 789,-781.29"/>
<polygon fill="#555555" stroke="#555555" points="792.5,-781.29 789,-771.29 785.5,-781.29 792.5,-781.29"/>
</g>
<!-- l2 -->
<g id="node4" class="node">
<title>l2</title>
<path fill="#d6ead6" stroke="#444444" d="M875.38,-678C875.38,-678 702.62,-678 702.62,-678 696.62,-678 690.62,-672 690.62,-666 690.62,-666 690.62,-654 690.62,-654 690.62,-648 696.62,-642 702.62,-642 702.62,-642 875.38,-642 875.38,-642 881.38,-642 887.38,-648 887.38,-654 887.38,-654 887.38,-666 887.38,-666 887.38,-672 881.38,-678 875.38,-678"/>
<text xml:space="preserve" text-anchor="middle" x="789" y="-661.55" font-family="Helvetica,sans-Serif" font-size="11.00">thesis_agent</text>
<text xml:space="preserve" text-anchor="middle" x="789" y="-649.55" font-family="Helvetica,sans-Serif" font-size="11.00">cluster + rubric + intelligence bonuses</text>
</g>
<!-- ev&#45;&gt;l2 -->
<g id="edge3" class="edge">
<title>ev&#45;&gt;l2</title>
<path fill="none" stroke="#555555" d="M789,-733.45C789,-721.03 789,-704.02 789,-689.6"/>
<polygon fill="#555555" stroke="#555555" points="792.5,-689.77 789,-679.77 785.5,-689.77 792.5,-689.77"/>
</g>
<!-- sig -->
<g id="node5" class="node">
<title>sig</title>
<path fill="#fdf0d5" stroke="#444444" d="M828.88,-601.73C828.88,-603.53 811,-605 789,-605 767,-605 749.12,-603.53 749.12,-601.73 749.12,-601.73 749.12,-572.27 749.12,-572.27 749.12,-570.47 767,-569 789,-569 811,-569 828.88,-570.47 828.88,-572.27 828.88,-572.27 828.88,-601.73 828.88,-601.73"/>
<path fill="none" stroke="#444444" d="M828.88,-601.73C828.88,-599.92 811,-598.45 789,-598.45 767,-598.45 749.12,-599.92 749.12,-601.73"/>
<text xml:space="preserve" text-anchor="middle" x="789" y="-582.55" font-family="Helvetica,sans-Serif" font-size="11.00">stock_signals</text>
</g>
<!-- l2&#45;&gt;sig -->
<g id="edge4" class="edge">
<title>l2&#45;&gt;sig</title>
<path fill="none" stroke="#555555" d="M789,-641.81C789,-634.23 789,-625.1 789,-616.54"/>
<polygon fill="#555555" stroke="#555555" points="792.5,-616.54 789,-606.54 785.5,-616.54 792.5,-616.54"/>
</g>
<!-- l3 -->
<g id="node6" class="node">
<title>l3</title>
<path fill="#f7d9cb" stroke="#444444" d="M756.75,-513.25C756.75,-513.25 631.25,-513.25 631.25,-513.25 625.25,-513.25 619.25,-507.25 619.25,-501.25 619.25,-501.25 619.25,-489.25 619.25,-489.25 619.25,-483.25 625.25,-477.25 631.25,-477.25 631.25,-477.25 756.75,-477.25 756.75,-477.25 762.75,-477.25 768.75,-483.25 768.75,-489.25 768.75,-489.25 768.75,-501.25 768.75,-501.25 768.75,-507.25 762.75,-513.25 756.75,-513.25"/>
<text xml:space="preserve" text-anchor="middle" x="694" y="-496.8" font-family="Helvetica,sans-Serif" font-size="11.00">trade_setup_agent</text>
<text xml:space="preserve" text-anchor="middle" x="694" y="-484.8" font-family="Helvetica,sans-Serif" font-size="11.00">setup &#160;&#160;OR &#160;&#160;reason_to_skip</text>
</g>
<!-- sig&#45;&gt;l3 -->
<g id="edge5" class="edge">
<title>sig&#45;&gt;l3</title>
<path fill="none" stroke="#555555" d="M770.68,-568.7C756.36,-555.16 736.25,-536.17 720.22,-521.02"/>
<polygon fill="#555555" stroke="#555555" points="723.03,-518.86 713.36,-514.54 718.23,-523.95 723.03,-518.86"/>
</g>
<!-- l5 -->
<g id="node9" class="node">
<title>l5</title>
<path fill="#d6ead6" stroke="#444444" d="M930.38,-319.75C930.38,-319.75 727.62,-319.75 727.62,-319.75 721.62,-319.75 715.62,-313.75 715.62,-307.75 715.62,-307.75 715.62,-295.25 715.62,-295.25 715.62,-289.25 721.62,-283.25 727.62,-283.25 727.62,-283.25 930.38,-283.25 930.38,-283.25 936.38,-283.25 942.38,-289.25 942.38,-295.25 942.38,-295.25 942.38,-307.75 942.38,-307.75 942.38,-313.75 936.38,-319.75 930.38,-319.75"/>
<text xml:space="preserve" text-anchor="middle" x="829" y="-305.3" font-family="Helvetica,sans-Serif" font-size="11.00">event_paper_agent (hourly) → paper trades</text>
<text xml:space="preserve" text-anchor="middle" x="829" y="-291.05" font-family="Helvetica,sans-Serif" font-size="11.00">price_agent (2h) → grade outcomes</text>
</g>
<!-- sig&#45;&gt;l5 -->
<g id="edge8" class="edge">
<title>sig&#45;&gt;l5</title>
<path fill="none" stroke="#555555" d="M794.9,-568.62C797.42,-560.6 800.2,-550.9 802,-542 817.21,-466.87 824.48,-376.61 827.38,-331.36"/>
<polygon fill="#555555" stroke="#555555" points="830.86,-331.8 827.98,-321.6 823.87,-331.37 830.86,-331.8"/>
</g>
<!-- setups -->
<g id="node7" class="node">
<title>setups</title>
<path fill="#fdf0d5" stroke="#444444" d="M666.5,-416.98C666.5,-418.78 642.07,-420.25 612,-420.25 581.93,-420.25 557.5,-418.78 557.5,-416.98 557.5,-416.98 557.5,-387.52 557.5,-387.52 557.5,-385.72 581.93,-384.25 612,-384.25 642.07,-384.25 666.5,-385.72 666.5,-387.52 666.5,-387.52 666.5,-416.98 666.5,-416.98"/>
<path fill="none" stroke="#444444" d="M666.5,-416.98C666.5,-415.17 642.07,-413.7 612,-413.7 581.93,-413.7 557.5,-415.17 557.5,-416.98"/>
<text xml:space="preserve" text-anchor="middle" x="612" y="-397.8" font-family="Helvetica,sans-Serif" font-size="11.00">stock_trade_setups</text>
</g>
<!-- l3&#45;&gt;setups -->
<g id="edge6" class="edge">
<title>l3&#45;&gt;setups</title>
<path fill="none" stroke="#555555" d="M678.58,-477.13C666.29,-463.49 648.89,-444.19 634.96,-428.73"/>
<polygon fill="#555555" stroke="#555555" points="637.94,-426.81 628.65,-421.72 632.74,-431.5 637.94,-426.81"/>
</g>
<!-- l4 -->
<g id="node8" class="node">
<title>l4</title>
<path fill="#f7d9cb" stroke="#444444" d="M730,-227.5C730,-227.5 492,-227.5 492,-227.5 486,-227.5 480,-221.5 480,-215.5 480,-215.5 480,-203.5 480,-203.5 480,-197.5 486,-191.5 492,-191.5 492,-191.5 730,-191.5 730,-191.5 736,-191.5 742,-197.5 742,-203.5 742,-203.5 742,-215.5 742,-215.5 742,-221.5 736,-227.5 730,-227.5"/>
<text xml:space="preserve" text-anchor="middle" x="611" y="-211.05" font-family="Helvetica,sans-Serif" font-size="11.00">risk_agent</text>
<text xml:space="preserve" text-anchor="middle" x="611" y="-199.05" font-family="Helvetica,sans-Serif" font-size="11.00">Van Tharp sizing · drawdown breaker · daily budget</text>
</g>
<!-- setups&#45;&gt;l4 -->
<g id="edge7" class="edge">
<title>setups&#45;&gt;l4</title>
<path fill="none" stroke="#555555" d="M611.91,-383.99C611.74,-351.16 611.36,-279.43 611.15,-239.24"/>
<polygon fill="#555555" stroke="#555555" points="614.65,-239.36 611.1,-229.38 607.65,-239.39 614.65,-239.36"/>
</g>
<!-- setups&#45;&gt;l5 -->
<g id="edge9" class="edge">
<title>setups&#45;&gt;l5</title>
<path fill="none" stroke="#555555" d="M666.78,-391.89C691.48,-386.41 720.53,-378.17 745,-366.25 765.64,-356.2 786.21,-340.7 801.83,-327.5"/>
<polygon fill="#555555" stroke="#555555" points="804.01,-330.24 809.28,-321.04 799.43,-324.95 804.01,-330.24"/>
</g>
<!-- pb -->
<g id="node11" class="node">
<title>pb</title>
<path fill="#dde7f0" stroke="#444444" d="M245.88,-319.5C245.88,-319.5 28.12,-319.5 28.12,-319.5 22.12,-319.5 16.12,-313.5 16.12,-307.5 16.12,-307.5 16.12,-295.5 16.12,-295.5 16.12,-289.5 22.12,-283.5 28.12,-283.5 28.12,-283.5 245.88,-283.5 245.88,-283.5 251.88,-283.5 257.88,-289.5 257.88,-295.5 257.88,-295.5 257.88,-307.5 257.88,-307.5 257.88,-313.5 251.88,-319.5 245.88,-319.5"/>
<text xml:space="preserve" text-anchor="middle" x="137" y="-304.18" font-family="Helvetica,sans-Serif" font-size="11.00">paper_book</text>
<text xml:space="preserve" text-anchor="middle" x="137" y="-292.18" font-family="Helvetica,sans-Serif" font-size="11.00">grade TRADEABLE setups vs $5k QQQ → tier</text>
</g>
<!-- setups&#45;&gt;pb -->
<g id="edge13" class="edge">
<title>setups&#45;&gt;pb</title>
<path fill="none" stroke="#555555" d="M557.29,-396.1C488.72,-388.92 367.94,-373.83 267,-348.5 241.34,-342.06 213.61,-332.61 190.38,-323.95"/>
<polygon fill="#555555" stroke="#555555" points="191.72,-320.71 181.12,-320.44 189.24,-327.26 191.72,-320.71"/>
</g>
<!-- sh -->
<g id="node12" class="node">
<title>sh</title>
<path fill="#dde7f0" stroke="#444444" d="M572.25,-319.5C572.25,-319.5 287.75,-319.5 287.75,-319.5 281.75,-319.5 275.75,-313.5 275.75,-307.5 275.75,-307.5 275.75,-295.5 275.75,-295.5 275.75,-289.5 281.75,-283.5 287.75,-283.5 287.75,-283.5 572.25,-283.5 572.25,-283.5 578.25,-283.5 584.25,-289.5 584.25,-295.5 584.25,-295.5 584.25,-307.5 584.25,-307.5 584.25,-313.5 578.25,-319.5 572.25,-319.5"/>
<text xml:space="preserve" text-anchor="middle" x="430" y="-304.18" font-family="Helvetica,sans-Serif" font-size="11.00">paper_book_shadow</text>
<text xml:space="preserve" text-anchor="middle" x="430" y="-292.18" font-family="Helvetica,sans-Serif" font-size="11.00">grade SKIPPED setups by reason → which gate over&#45;filters?</text>
</g>
<!-- setups&#45;&gt;sh -->
<g id="edge14" class="edge">
<title>setups&#45;&gt;sh</title>
<path fill="none" stroke="#555555" d="M580.3,-384.05C550.21,-367.72 504.8,-343.09 471.77,-325.16"/>
<polygon fill="#555555" stroke="#555555" points="473.74,-322.25 463.28,-320.56 470.4,-328.4 473.74,-322.25"/>
</g>
<!-- l6 -->
<g id="node13" class="node">
<title>l6</title>
<path fill="#cfe8f0" stroke="#444444" d="M702.25,-131.75C702.25,-131.75 519.75,-131.75 519.75,-131.75 513.75,-131.75 507.75,-125.75 507.75,-119.75 507.75,-119.75 507.75,-107.75 507.75,-107.75 507.75,-101.75 513.75,-95.75 519.75,-95.75 519.75,-95.75 702.25,-95.75 702.25,-95.75 708.25,-95.75 714.25,-101.75 714.25,-107.75 714.25,-107.75 714.25,-119.75 714.25,-119.75 714.25,-125.75 708.25,-131.75 702.25,-131.75"/>
<text xml:space="preserve" text-anchor="middle" x="611" y="-110.42" font-family="Helvetica,sans-Serif" font-size="11.00">site_generator → dashboard · Telegram</text>
</g>
<!-- l4&#45;&gt;l6 -->
<g id="edge11" class="edge">
<title>l4&#45;&gt;l6</title>
<path fill="none" stroke="#555555" d="M611,-191.3C611,-177.91 611,-159.02 611,-143.36"/>
<polygon fill="#555555" stroke="#555555" points="614.5,-143.67 611,-133.67 607.5,-143.67 614.5,-143.67"/>
</g>
<!-- cal -->
<g id="node10" class="node">
<title>cal</title>
<path fill="#ffe1a8" stroke="#444444" d="M903.75,-227.5C903.75,-229.71 871.59,-231.5 832,-231.5 792.41,-231.5 760.25,-229.71 760.25,-227.5 760.25,-227.5 760.25,-191.5 760.25,-191.5 760.25,-189.29 792.41,-187.5 832,-187.5 871.59,-187.5 903.75,-189.29 903.75,-191.5 903.75,-191.5 903.75,-227.5 903.75,-227.5"/>
<path fill="none" stroke="#444444" d="M903.75,-227.5C903.75,-225.29 871.59,-223.5 832,-223.5 792.41,-223.5 760.25,-225.29 760.25,-227.5"/>
<text xml:space="preserve" text-anchor="middle" x="832" y="-211.05" font-family="Helvetica,sans-Serif" font-size="11.00">stock_rule_calibration</text>
<text xml:space="preserve" text-anchor="middle" x="832" y="-199.05" font-family="Helvetica,sans-Serif" font-size="11.00">per&#45;rule &#160;&#160;PF · accuracy · n</text>
</g>
<!-- l5&#45;&gt;cal -->
<g id="edge10" class="edge">
<title>l5&#45;&gt;cal</title>
<path fill="none" stroke="#555555" d="M829.58,-283.15C829.96,-271.85 830.46,-256.75 830.91,-243.25"/>
<polygon fill="#555555" stroke="#555555" points="834.4,-243.55 831.24,-233.44 827.4,-243.32 834.4,-243.55"/>
</g>
<!-- cal&#45;&gt;l2 -->
<g id="edge15" class="edge">
<title>cal&#45;&gt;l2</title>
<path fill="none" stroke="#2a9d8f" stroke-width="1.6" stroke-dasharray="5,2" d="M799.97,-231.85C786.24,-240.31 769.76,-249.59 754,-256.25 724.7,-268.62 704.28,-249.95 685,-275.25 665.27,-301.15 671.6,-318.83 685,-348.5 718.4,-422.47 782.82,-398.17 822,-469.25 833.37,-489.88 850.56,-572.48 838,-605 833.99,-615.38 826.96,-625 819.45,-633.16"/>
<polygon fill="#2a9d8f" stroke="#2a9d8f" stroke-width="1.6" points="817.21,-630.45 812.62,-640 822.16,-635.4 817.21,-630.45"/>
<text xml:space="preserve" text-anchor="middle" x="840.77" y="-450.7" font-family="Helvetica,sans-Serif" font-size="9.00" fill="#1f7a6e">learn → act:</text>
<text xml:space="preserve" text-anchor="middle" x="840.77" y="-439.45" font-family="Helvetica,sans-Serif" font-size="9.00" fill="#1f7a6e">gate scoring</text>
</g>
<!-- cal&#45;&gt;l3 -->
<g id="edge16" class="edge">
<title>cal&#45;&gt;l3</title>
<path fill="none" stroke="#2a9d8f" stroke-width="1.6" stroke-dasharray="5,2" d="M858.74,-231.82C869.04,-242.53 876.35,-255.31 867,-265.25 842.14,-291.69 728.86,-248.81 704,-275.25 681.7,-298.96 686.33,-321.15 704,-348.5 756.65,-430 850.35,-356.75 903,-438.25 908.06,-446.09 909.03,-452.13 903,-459.25 887.19,-477.93 831.37,-486.65 781.4,-490.71"/>
<polygon fill="#2a9d8f" stroke="#2a9d8f" stroke-width="1.6" points="781.31,-487.21 771.6,-491.44 781.83,-494.19 781.31,-487.21"/>
<text xml:space="preserve" text-anchor="middle" x="747.82" y="-357.7" font-family="Helvetica,sans-Serif" font-size="9.00" fill="#1f7a6e">skip if PF &lt; 1.0</text>
</g>
<!-- cal&#45;&gt;l6 -->
<g id="edge12" class="edge">
<title>cal&#45;&gt;l6</title>
<path fill="none" stroke="#555555" d="M782.68,-187.58C746.9,-172.4 698.63,-151.92 662.38,-136.55"/>
<polygon fill="#555555" stroke="#555555" points="663.99,-133.43 653.42,-132.74 661.26,-139.87 663.99,-133.43"/>
</g>
<!-- gate -->
<g id="node14" class="node">
<title>gate</title>
<path fill="#ffe1a8" stroke="#444444" d="M887.22,-143.49C887.22,-143.49 744.03,-116.01 744.03,-116.01 738.14,-114.88 738.14,-112.62 744.03,-111.49 744.03,-111.49 887.22,-84.01 887.22,-84.01 893.11,-82.88 904.89,-82.88 910.78,-84.01 910.78,-84.01 1053.97,-111.49 1053.97,-111.49 1059.86,-112.62 1059.86,-114.88 1053.97,-116.01 1053.97,-116.01 910.78,-143.49 910.78,-143.49 904.89,-144.62 893.11,-144.62 887.22,-143.49"/>
<text xml:space="preserve" text-anchor="middle" x="899" y="-115.3" font-family="Helvetica,sans-Serif" font-size="11.00">rule matured?</text>
<text xml:space="preserve" text-anchor="middle" x="899" y="-103.3" font-family="Helvetica,sans-Serif" font-size="11.00">n ≥ 30 · PF ≥ bar · forward&#45;held</text>
</g>
<!-- cal&#45;&gt;gate -->
<g id="edge17" class="edge">
<title>cal&#45;&gt;gate</title>
<path fill="none" stroke="#555555" d="M847.2,-187.23C854.77,-176.64 864.14,-163.53 872.82,-151.39"/>
<polygon fill="#555555" stroke="#555555" points="875.43,-153.75 878.4,-143.58 869.73,-149.68 875.43,-153.75"/>
</g>
<!-- watch -->
<g id="node15" class="node">
<title>watch</title>
<path fill="#f7d9cb" stroke="#444444" d="M875.38,-36C875.38,-36 684.62,-36 684.62,-36 678.62,-36 672.62,-30 672.62,-24 672.62,-24 672.62,-12 672.62,-12 672.62,-6 678.62,0 684.62,0 684.62,0 875.38,0 875.38,0 881.38,0 887.38,-6 887.38,-12 887.38,-12 887.38,-24 887.38,-24 887.38,-30 881.38,-36 875.38,-36"/>
<text xml:space="preserve" text-anchor="middle" x="780" y="-19.55" font-family="Helvetica,sans-Serif" font-size="11.00">WATCH / RESEARCH / AVOID_CHASE</text>
<text xml:space="preserve" text-anchor="middle" x="780" y="-7.55" font-family="Helvetica,sans-Serif" font-size="11.00">(paper only — today: ALL signals)</text>
</g>
<!-- gate&#45;&gt;watch -->
<g id="edge18" class="edge">
<title>gate&#45;&gt;watch</title>
<path fill="none" stroke="#555555" d="M867.11,-87.63C849.64,-73.86 828.09,-56.88 810.79,-43.26"/>
<polygon fill="#555555" stroke="#555555" points="813.39,-40.85 803.37,-37.41 809.06,-46.35 813.39,-40.85"/>
<text xml:space="preserve" text-anchor="middle" x="841.18" y="-55.2" font-family="Helvetica,sans-Serif" font-size="9.00">no</text>
</g>
<!-- buy -->
<g id="node16" class="node">
<title>buy</title>
<path fill="#d6ead6" stroke="#444444" d="M1116.12,-36C1116.12,-36 917.88,-36 917.88,-36 911.88,-36 905.88,-30 905.88,-24 905.88,-24 905.88,-12 905.88,-12 905.88,-6 911.88,0 917.88,0 917.88,0 1116.12,0 1116.12,0 1122.12,0 1128.12,-6 1128.12,-12 1128.12,-12 1128.12,-24 1128.12,-24 1128.12,-30 1122.12,-36 1116.12,-36"/>
<text xml:space="preserve" text-anchor="middle" x="1017" y="-19.55" font-family="Helvetica,sans-Serif" font-size="11.00">BUY / SELL</text>
<text xml:space="preserve" text-anchor="middle" x="1017" y="-7.55" font-family="Helvetica,sans-Serif" font-size="11.00">(real conviction — today: NONE; 0 mature)</text>
</g>
<!-- gate&#45;&gt;buy -->
<g id="edge19" class="edge">
<title>gate&#45;&gt;buy</title>
<path fill="none" stroke="#555555" d="M930.93,-87.38C948.09,-73.75 969.16,-57.01 986.15,-43.51"/>
<polygon fill="#555555" stroke="#555555" points="988.28,-46.28 993.94,-37.32 983.93,-40.8 988.28,-46.28"/>
<text xml:space="preserve" text-anchor="middle" x="979.16" y="-55.2" font-family="Helvetica,sans-Serif" font-size="9.00">yes</text>
</g>
</g>
</svg>
